<?xml version="1.0" standalone="no"?>
<!DOCTYPE svg PUBLIC "-//W3C//DTD SVG 20010904//EN"
 "http://www.w3.org/TR/2001/REC-SVG-20010904/DTD/svg10.dtd">
<svg version="1.0" xmlns="http://www.w3.org/2000/svg"
 width="512.000000pt" height="512.000000pt" viewBox="0 0 512.000000 512.000000"
 preserveAspectRatio="xMidYMid meet">
<metadata>
Created by potrace 1.11, written by Peter Selinger 2001-2013
</metadata>
<g transform="translate(0.000000,512.000000) scale(0.100000,-0.100000)"
fill="#000000" stroke="none">
<path d="M2572 5104 c-136 -35 -277 -133 -353 -242 -27 -40 -42 -52 -69 -57
-49 -9 -142 -61 -187 -104 -47 -44 -97 -115 -118 -168 -13 -33 -25 -44 -74
-66 -116 -53 -213 -169 -245 -293 -28 -110 -17 -214 35 -320 31 -62 132 -165
189 -192 98 -46 130 -51 393 -52 137 0 253 -3 257 -5 6 -4 -1 -84 -14 -170
-55 -348 -212 -582 -456 -678 -86 -34 -114 -38 -250 -42 -256 -8 -519 93 -679
259 l-35 36 75 1 c95 1 122 6 184 31 176 75 285 238 285 426 -1 158 -113 331
-258 398 -55 25 -62 32 -88 87 -36 78 -131 175 -204 209 -118 55 -248 61 -362
18 -104 -40 -213 -148 -254 -249 -11 -27 -25 -43 -47 -52 -184 -73 -303 -252
-293 -439 9 -183 127 -340 301 -401 69 -24 93 -27 220 -28 l110 -1 13 -32 c7
-18 17 -40 22 -48 5 -8 17 -30 26 -48 27 -53 182 -206 264 -260 153 -101 342
-174 520 -200 60 -9 283 -9 345 0 123 18 294 83 388 146 23 16 48 32 54 36 19
11 -41 -153 -97 -269 -52 -106 -102 -173 -154 -204 -22 -13 -59 -21 -126 -25
-154 -10 -276 -45 -430 -123 -185 -93 -376 -259 -475 -411 l-40 -61 -257 -2
c-142 -1 -261 -2 -265 -3 -28 -5 -78 -47 -94 -78 -37 -73 -12 -156 59 -196 34
-19 54 -22 146 -22 77 0 108 -4 110 -12 3 -7 21 -67 41 -133 97 -315 240 -607
410 -834 99 -132 183 -216 225 -224 18 -4 581 -7 1252 -7 1365 0 1253 -6 1325
74 84 93 102 115 150 182 169 233 338 597 423 914 l11 40 105 0 c121 0 160 12
195 61 32 46 34 134 3 176 -48 65 -9 62 -863 63 -732 0 -773 1 -765 17 39 89
56 163 57 248 l1 92 57 -18 c172 -54 359 -43 516 31 198 92 334 255 397 472
l17 58 262 0 c228 0 271 2 329 19 151 43 265 159 313 319 18 59 12 206 -10
262 -46 114 -134 210 -236 257 -51 24 -60 32 -83 83 -30 64 -100 143 -163 184
-22 15 -72 38 -110 51 -62 21 -86 23 -273 24 -227 2 -284 -6 -366 -46 -98 -48
-200 -158 -220 -237 -5 -21 -22 -34 -73 -59 -153 -74 -256 -230 -260 -396 -3
-125 42 -234 134 -326 95 -94 186 -130 340 -134 49 -1 92 -4 94 -7 10 -9 -48
-110 -88 -156 -28 -32 -68 -60 -119 -85 -73 -36 -80 -38 -176 -38 -117 0 -173
16 -263 74 -253 164 -423 532 -492 1066 -9 71 -14 124 -25 298 l-3 47 336 0
c370 0 412 5 524 61 162 80 277 224 321 400 61 246 -50 513 -272 656 -90 58
-174 84 -290 91 l-103 5 -29 41 c-36 52 -112 124 -170 163 -127 83 -312 114
-458 77z"/>
</g>
</svg>
