<svg width="48" height="33" viewBox="0 0 48 33" fill="none" xmlns="http://www.w3.org/2000/svg">
<g filter="url(#filter0_d)">
<path d="M30.3578 4.75399C30.4459 4.6742 30.534 4.59608 30.6205 4.51795C30.795 4.36336 30.9646 4.20545 31.1308 4.04919C31.292 3.88296 31.4832 3.77325 31.6511 3.63196C31.824 3.49732 31.9902 3.3577 32.1597 3.23303C32.5105 3.00863 32.8362 2.76094 33.167 2.57145C33.4978 2.38695 33.8053 2.18415 34.1112 2.04618C34.2625 1.96805 34.4071 1.89325 34.545 1.82178C34.688 1.75861 34.8243 1.69711 34.9539 1.64059C35.4742 1.39957 35.9048 1.25329 36.2006 1.14523C36.4982 1.04882 36.6577 0.998956 36.6577 0.998956L36.6727 0.99397C36.7259 0.977347 36.7708 0.934127 36.7891 0.877613C36.819 0.782864 36.7658 0.681468 36.6727 0.651549C36.6727 0.651549 36.4932 0.595034 36.1641 0.535191C35.9995 0.508596 35.7917 0.468702 35.5507 0.45374C35.308 0.433793 35.0254 0.403872 34.7112 0.413847C34.5533 0.415509 34.3855 0.412184 34.2109 0.422158C34.0364 0.437118 33.8535 0.45374 33.664 0.472026C33.2784 0.498622 32.8744 0.58672 32.434 0.676481C32.2096 0.71305 31.9918 0.782864 31.7641 0.852677C31.5347 0.924154 31.2987 0.99729 31.0576 1.07209C30.5955 1.26657 30.0902 1.45939 29.5982 1.722C29.3555 1.85831 29.1062 1.9996 28.8552 2.15086C28.7288 2.22566 28.6025 2.30212 28.4745 2.37858C28.3548 2.46668 28.2335 2.55478 28.1121 2.64288C27.8711 2.82738 27.6251 3.01355 27.3741 3.20305C27.1148 3.38589 26.9087 3.62359 26.671 3.84135C26.4399 4.06741 26.2056 4.29513 25.9696 4.5262C25.7584 4.77719 25.5473 5.03317 25.3396 5.29747C25.1351 5.56343 24.9124 5.82607 24.7229 6.10862C24.5417 6.39619 24.3705 6.69373 24.1926 6.99126C24.0247 7.29545 23.8369 7.58632 23.6873 7.90879C23.541 8.23792 23.4047 8.57369 23.2668 8.91113C23.1288 9.2469 22.9908 9.58598 22.8628 9.92675C22.7747 10.2426 22.685 10.5617 22.5952 10.8809C22.5054 11.2 22.4157 11.5208 22.3259 11.8416L22.1747 12.3702L22.0566 12.8074C22.0151 12.9537 21.9818 13.1016 21.9353 13.2462L21.7774 13.6701L21.6195 14.0973C21.5646 14.2385 21.4948 14.3715 21.4333 14.5112C20.928 15.6132 20.2598 16.6405 19.4586 17.548C18.6557 18.454 17.7432 19.2568 16.7658 19.9284C15.79 20.6049 14.7578 21.1485 13.7438 21.6056C12.7265 22.0594 11.7225 22.4118 10.7767 22.6877C8.88344 23.2446 7.2345 23.5006 6.08097 23.6501C4.92237 23.7947 4.25748 23.8047 4.25748 23.8047C4.1727 23.8064 4.09957 23.8695 4.08793 23.956C4.07629 24.0507 4.14278 24.1388 4.23919 24.1505H4.24252C4.24252 24.1505 4.92239 24.2369 6.11252 24.2618C6.70758 24.2751 7.43235 24.2685 8.26511 24.217C9.09622 24.1654 10.0371 24.0823 11.056 23.9111C13.0872 23.5687 15.4777 22.9487 17.8313 21.6688C19.0049 21.0321 20.1684 20.2326 21.2057 19.2352C22.2462 18.2462 23.1688 17.076 23.9001 15.7911C23.9916 15.6298 24.0913 15.4736 24.1761 15.309L24.4204 14.8137C24.585 14.4829 24.7446 14.1488 24.8775 13.808L25.087 13.2977L25.1385 13.1697L25.1651 13.1065L25.1717 13.0899C25.1933 13.0251 25.1485 13.1597 25.1551 13.1414L25.1667 13.1132L25.2648 12.8821C25.3978 12.5763 25.5291 12.2704 25.6604 11.9663C25.7918 11.6621 25.9231 11.3595 26.0544 11.057C26.2023 10.8044 26.3386 10.5517 26.4733 10.3007C26.6079 10.0497 26.7442 9.80205 26.8656 9.54941C27.0035 9.30174 27.1681 9.06239 27.3127 8.81971C27.4573 8.57536 27.6019 8.33435 27.7366 8.09001C27.8862 7.8573 28.0507 7.6412 28.2003 7.41682C28.3566 7.19574 28.4962 6.96635 28.6475 6.74861C28.812 6.54415 28.9733 6.34136 29.1328 6.14188C29.2126 6.04049 29.2907 5.94075 29.3705 5.84102C29.447 5.73796 29.5251 5.63823 29.6132 5.55345C29.7844 5.37227 29.9523 5.19441 30.1185 5.01822C30.1967 4.93178 30.2781 4.84202 30.3579 4.75392L30.3578 4.75399Z" fill="#4AF6CD"/>
<path fill-rule="evenodd" clip-rule="evenodd" d="M42.8297 23.451C43.4663 23.7352 43.837 23.8732 43.837 23.8732L43.8371 23.8732C43.9003 23.8964 43.9335 23.9663 43.9086 24.0261C43.887 24.081 43.8288 24.1125 43.7706 24.1026C43.7706 24.1026 43.3733 24.0261 42.6901 23.8516C42.0053 23.6803 41.0395 23.3861 39.8992 22.9589C39.809 22.9233 39.7172 22.8878 39.6241 22.8517C39.4259 22.7749 39.222 22.6958 39.0149 22.6099C38.8727 22.5473 38.7283 22.4845 38.5819 22.4207C38.4168 22.3488 38.2491 22.2758 38.0791 22.2009C37.9574 22.1407 37.8341 22.08 37.7097 22.0187C37.5113 21.9209 37.3099 21.8217 37.1067 21.7206C36.8637 21.5847 36.617 21.4461 36.3665 21.3054C36.2829 21.2584 36.1988 21.2111 36.1143 21.1637C36.0087 21.0965 35.9026 21.0289 35.7962 20.961C35.571 20.8175 35.3439 20.6727 35.1137 20.5271C34.8778 20.3603 34.6454 20.1842 34.4103 20.006C34.3173 19.9355 34.2239 19.8647 34.1296 19.794C33.9626 19.6482 33.7951 19.5009 33.6271 19.3533C33.4791 19.2233 33.3308 19.0929 33.1821 18.9629C33.0935 18.8692 33.0041 18.7757 32.9145 18.682C32.7082 18.4662 32.5006 18.249 32.2978 18.0254L31.8939 17.5085L31.6928 17.2492L31.5897 17.1195L31.5648 17.0879L31.5515 17.0713C31.5492 17.0672 31.5484 17.0659 31.5485 17.066C31.5486 17.0662 31.5663 17.0974 31.5182 17.0165L31.5133 17.0081L31.4717 16.945L31.1459 16.4446C31.1126 16.3908 31.0789 16.3411 31.0453 16.2913C30.9698 16.1798 30.8942 16.068 30.8218 15.9094C30.7727 15.8075 30.7208 15.7055 30.6687 15.6031C30.5076 15.2861 30.345 14.9661 30.2583 14.6394C30.244 14.5957 30.2296 14.552 30.2151 14.5083C30.1588 14.338 30.1025 14.1678 30.0588 13.9945C30.0434 13.8993 30.0283 13.8044 30.0132 13.7097C29.9925 13.5797 29.9719 13.4502 29.9508 13.3213C29.9462 13.2773 29.9405 13.2339 29.9347 13.1905C29.9256 13.1224 29.9166 13.0546 29.9125 12.9855L29.9159 12.6431C29.9187 12.5783 29.9202 12.5138 29.9217 12.4495C29.9254 12.2878 29.9291 12.1276 29.9541 11.9683C29.9823 11.7954 30.0183 11.6255 30.0539 11.4578C30.0645 11.4078 30.0751 11.358 30.0854 11.3084C30.1109 11.1642 30.1675 11.0245 30.223 10.8873C30.2508 10.8188 30.2782 10.7509 30.3015 10.6833L30.4212 10.3841C30.4499 10.3201 30.4873 10.2583 30.5244 10.1973C30.5431 10.1664 30.5618 10.1356 30.5791 10.1049C30.6132 10.0501 30.646 9.99525 30.6785 9.94081C30.7537 9.81503 30.8274 9.69163 30.9132 9.57795C30.924 9.56533 30.9347 9.55273 30.9454 9.54015C31.2011 9.23977 31.4443 8.95406 31.7426 8.74186C31.9589 8.54627 32.2106 8.41327 32.448 8.28778C32.5153 8.25223 32.5814 8.21729 32.6452 8.18169C32.7579 8.13147 32.8733 8.09299 32.9854 8.05559C33.0255 8.04224 33.0651 8.02903 33.104 8.01547C33.1189 8.01044 33.1338 8.0054 33.1485 8.00038C33.2802 7.95558 33.4066 7.91257 33.5412 7.89911C34.1129 7.78442 34.6183 7.816 35.0056 7.89413C35.2017 7.93568 35.3696 7.98223 35.5126 8.02378C35.6539 8.08528 35.7702 8.13848 35.8616 8.18502C36.0445 8.27645 36.1359 8.32797 36.1359 8.32797C36.1957 8.36288 36.2157 8.43934 36.1808 8.49918C36.1608 8.53409 36.1276 8.5557 36.091 8.56068L36.0744 8.56401C36.0744 8.56401 35.973 8.57897 35.7835 8.60723C35.7084 8.62088 35.6198 8.63117 35.5205 8.64271C35.499 8.64521 35.4769 8.64777 35.4544 8.65044C35.4119 8.66217 35.3674 8.67521 35.3213 8.68874C35.23 8.71549 35.1321 8.74418 35.0305 8.76846C34.9245 8.78556 34.8154 8.83626 34.7031 8.88842C34.6517 8.91232 34.5996 8.93653 34.5468 8.95795C34.4313 8.99349 34.321 9.06315 34.2085 9.13422C34.1526 9.16954 34.0961 9.2052 34.0382 9.23721C33.9216 9.30668 33.8127 9.39956 33.7031 9.49295C33.6501 9.5381 33.597 9.58337 33.5428 9.62617C33.4938 9.68484 33.4415 9.73961 33.3892 9.79442C33.2888 9.89954 33.1882 10.0048 33.1106 10.1381C32.8347 10.4989 32.6452 10.951 32.5388 11.4413C32.5315 11.4877 32.5201 11.5326 32.5087 11.5774C32.4892 11.6546 32.4696 11.7318 32.4707 11.817C32.4684 11.8467 32.4663 11.8766 32.4642 11.9064C32.4571 12.0085 32.4499 12.111 32.4358 12.2126C32.4293 12.2859 32.4335 12.3628 32.4378 12.4401C32.4412 12.503 32.4446 12.5662 32.4424 12.6282C32.4424 12.6456 32.4425 12.663 32.4426 12.6805C32.4429 12.7329 32.4432 12.7856 32.4407 12.8393C32.443 12.8889 32.451 12.9394 32.459 12.9902C32.4625 13.0124 32.466 13.0347 32.469 13.057C32.4768 13.1343 32.4842 13.212 32.4916 13.29C32.4983 13.3612 32.5051 13.4327 32.5122 13.5042C32.5488 13.6554 32.582 13.81 32.6119 13.9662C32.6419 14.1756 32.6999 14.365 32.7588 14.5571C32.7915 14.6639 32.8245 14.7715 32.853 14.8838C32.8696 14.9859 32.9303 15.1168 32.9909 15.2475C33.0151 15.2998 33.0394 15.352 33.0608 15.4024L33.3068 15.9459L33.3367 16.0141L33.34 16.0191L33.3433 16.0257L33.4115 16.1421L33.5511 16.3715L33.832 16.8369C33.9586 17.0019 34.0846 17.167 34.2104 17.3317C34.3077 17.459 34.4048 17.5861 34.5019 17.7129L35.2599 18.5308C35.5325 18.7851 35.8034 19.0377 36.0727 19.2871C36.1668 19.3651 36.2604 19.4431 36.3537 19.5207C36.5425 19.6776 36.7297 19.8333 36.9155 19.9868C37.2064 20.2029 37.4939 20.4157 37.7748 20.6235C38.0657 20.8213 38.3516 21.0141 38.6292 21.2003C38.9151 21.3782 39.1927 21.551 39.462 21.7189C39.6348 21.8222 39.8063 21.9194 39.9739 22.0145C40.0707 22.0694 40.1662 22.1235 40.2599 22.1777C40.7768 22.4636 41.2605 22.7129 41.6944 22.9224C42.1299 23.1335 42.5122 23.3097 42.8297 23.451ZM33.32 15.9845C33.3196 15.984 33.3191 15.9834 33.3183 15.9825L33.3266 15.9975L33.3299 16.0008C33.3266 15.9958 33.3216 15.9875 33.3199 15.9842C33.3199 15.9843 33.32 15.9844 33.32 15.9845Z" fill="#4AF6CD"/>
<path d="M35.4876 2.85237C34.7064 3.0136 34.2127 3.21806 34.2127 3.21806C34.1811 3.23136 34.1562 3.26294 34.1562 3.29951C34.1545 3.34771 34.1944 3.38761 34.2426 3.38761C34.2443 3.38761 34.7595 3.39093 35.5192 3.47903C35.8982 3.5156 36.3337 3.59206 36.7925 3.67185C37.2496 3.77491 37.7333 3.86799 38.1971 4.01427C38.3134 4.05416 38.4298 4.08574 38.5428 4.12896C38.6542 4.17883 38.7639 4.22703 38.8736 4.27524C39.093 4.36999 39.2991 4.47471 39.5069 4.54618C39.718 4.60935 39.9225 4.6642 40.1236 4.70077C40.3297 4.73401 40.5259 4.7656 40.7071 4.79385C40.8916 4.82211 41.0711 4.83209 41.234 4.8404C41.3919 4.85702 41.5382 4.867 41.6628 4.867C41.9138 4.87198 42.0801 4.8537 42.0801 4.8537L42.0867 4.85204C42.095 4.85037 42.1017 4.84871 42.11 4.84705C42.1665 4.8271 42.1948 4.76394 42.1748 4.70742C42.1748 4.70742 42.12 4.55616 41.9853 4.33342C41.9188 4.21872 41.8291 4.09073 41.7177 3.94778C41.6047 3.80981 41.4634 3.67351 41.3021 3.53222C41.2223 3.45908 41.1343 3.38927 41.0428 3.31946C40.9464 3.25962 40.85 3.19147 40.7436 3.13329C40.5375 3.0053 40.3065 2.8906 40.0538 2.82245C39.8028 2.74598 39.5335 2.70609 39.2576 2.69446C38.9833 2.66952 38.7074 2.65789 38.4331 2.64459C38.1605 2.61966 37.8879 2.62298 37.622 2.61799C37.356 2.61134 37.0934 2.63794 36.8424 2.65124C36.5897 2.68116 36.3504 2.69445 36.1226 2.73601C35.8966 2.77424 35.6838 2.81081 35.4877 2.85237L35.4876 2.85237Z" fill="#4AF6CD"/>
<path d="M41.1093 9.00251C41.2756 9.07731 41.4052 9.16042 41.5349 9.22027C41.7726 9.35324 41.9388 9.43303 41.9388 9.43303L41.9488 9.43802C41.9621 9.44467 41.977 9.44799 41.9937 9.44799C42.0468 9.44633 42.0901 9.40145 42.0901 9.3466C42.0901 9.3466 42.0884 9.30171 42.0867 9.2186C42.0817 9.13549 42.0768 9.01083 42.0435 8.85956C42.0069 8.71162 41.9621 8.52379 41.8706 8.33097C41.7892 8.12817 41.6662 7.9204 41.5133 7.70594C41.4351 7.60123 41.347 7.49484 41.2556 7.38846C41.1575 7.29039 41.0595 7.18068 40.9481 7.08427C40.7287 6.88647 40.476 6.70362 40.1951 6.559C39.9142 6.41604 39.605 6.31132 39.2909 6.2332C38.9767 6.14843 38.6592 6.08194 38.3467 6.0088C37.7217 5.86419 37.0967 5.76279 36.5099 5.71625C35.9248 5.66139 35.3779 5.65142 34.9109 5.65641C33.9784 5.66804 33.365 5.76113 33.365 5.76113C33.3284 5.76611 33.2985 5.79437 33.2902 5.83094C33.2819 5.87914 33.3118 5.92569 33.36 5.934C33.36 5.934 33.9601 6.04869 34.8361 6.27974C35.2732 6.39278 35.7769 6.54071 36.3055 6.71523C36.5698 6.80001 36.8374 6.90307 37.11 6.99948C37.3793 7.09921 37.6502 7.20892 37.9129 7.32694C38.1755 7.44662 38.4298 7.58292 38.6642 7.73252C38.9019 7.88046 39.1229 8.03172 39.3457 8.15473C39.5685 8.27607 39.7829 8.38246 39.9973 8.47554C40.2084 8.57361 40.4079 8.6667 40.5924 8.75313C40.7818 8.84289 40.9564 8.92767 41.1093 9.00247L41.1093 9.00251Z" fill="#4AF6CD"/>
<path d="M40.1817 11.0889C40.1185 10.9576 40.0287 10.8346 39.929 10.7033C39.8309 10.5703 39.7046 10.4639 39.565 10.3625C39.4254 10.2628 39.2558 10.2029 39.0879 10.1381C38.9184 10.0816 38.7472 10.0267 38.5826 9.96524C38.2501 9.85387 37.9194 9.74749 37.6019 9.69097C37.2877 9.62116 36.9885 9.58958 36.7358 9.56298C36.2305 9.51145 35.8881 9.53306 35.8881 9.53306C35.8631 9.53472 35.8399 9.54968 35.8266 9.57462C35.81 9.61119 35.8249 9.6544 35.8615 9.67102C35.8615 9.67102 36.1624 9.81231 36.5946 10.0384C36.809 10.1564 37.0533 10.2977 37.3093 10.4523C37.434 10.5321 37.5636 10.6135 37.6933 10.695C37.8246 10.7747 37.9493 10.8678 38.0756 10.9543C38.197 11.0474 38.3133 11.1488 38.4197 11.2535C38.5194 11.3648 38.6275 11.4612 38.7305 11.5444C38.8319 11.6275 38.9549 11.6823 39.0646 11.7388C39.1727 11.797 39.2907 11.8386 39.3987 11.8818C39.5018 11.9267 39.6082 11.9632 39.7112 11.9932C39.8143 12.0231 39.8958 12.058 39.9772 12.0796C40.1368 12.1278 40.2531 12.1478 40.2531 12.1478L40.2581 12.1494C40.3097 12.1594 40.3595 12.1245 40.3695 12.073C40.3695 12.073 40.3894 11.9632 40.3778 11.7821C40.3712 11.6923 40.3612 11.5776 40.3279 11.4629C40.293 11.3482 40.2465 11.2219 40.1817 11.0889H40.1817Z" fill="#4AF6CD"/>
</g>
<defs>
<filter id="filter0_d" x="0.0866089" y="0.411865" width="47.8303" height="31.8559" filterUnits="userSpaceOnUse" color-interpolation-filters="sRGB">
<feFlood flood-opacity="0" result="BackgroundImageFix"/>
<feColorMatrix in="SourceAlpha" type="matrix" values="0 0 0 0 0 0 0 0 0 0 0 0 0 0 0 0 0 0 127 0"/>
<feOffset dy="4"/>
<feGaussianBlur stdDeviation="2"/>
<feColorMatrix type="matrix" values="0 0 0 0 0 0 0 0 0 0 0 0 0 0 0 0 0 0 0.25 0"/>
<feBlend mode="normal" in2="BackgroundImageFix" result="effect1_dropShadow"/>
<feBlend mode="normal" in="SourceGraphic" in2="effect1_dropShadow" result="shape"/>
</filter>
</defs>
</svg>
