<svg width="40" height="40" viewBox="0 0 40 40" fill="none" xmlns="http://www.w3.org/2000/svg">
<path d="M23.2249 39.7397C23.0582 39.7669 22.891 39.7919 22.7231 39.8148C22.891 39.7919 23.0582 39.7669 23.2249 39.7397Z" fill="white"/>
<path d="M23.6248 39.6714C23.5452 39.686 23.4655 39.6995 23.3859 39.7132C23.4655 39.6995 23.5452 39.686 23.6248 39.6714Z" fill="white"/>
<path d="M22.2763 39.8701C22.0813 39.8921 21.8851 39.9116 21.6882 39.9281C21.8851 39.9116 22.0813 39.8921 22.2763 39.8701Z" fill="white"/>
<path d="M22.6605 39.8232C22.5668 39.8358 22.4725 39.8474 22.3785 39.8583C22.4725 39.8474 22.5668 39.8358 22.6605 39.8232Z" fill="white"/>
<path d="M24.1693 39.5635C24.0991 39.5784 24.0286 39.5934 23.9581 39.6077C24.0286 39.5934 24.0991 39.5784 24.1693 39.5635Z" fill="white"/>
<path d="M25.5206 39.2275C25.4639 39.2437 25.4071 39.259 25.3503 39.2748C25.4071 39.259 25.4639 39.2437 25.5206 39.2275Z" fill="white"/>
<path d="M25.1119 39.3394C25.0503 39.3555 24.9883 39.372 24.9264 39.3876C24.9883 39.372 25.0503 39.3558 25.1119 39.3394Z" fill="white"/>
<path d="M24.5774 39.4731C24.5121 39.4884 24.4462 39.5027 24.3802 39.5174C24.4462 39.5027 24.5121 39.4884 24.5774 39.4731Z" fill="white"/>
<path d="M21.6819 39.9287C21.5766 39.9376 21.4713 39.9455 21.3657 39.9525C21.4713 39.9455 21.5766 39.9376 21.6819 39.9287Z" fill="white"/>
<path d="M40 20C40 8.95599 31.044 0 20 0C8.95599 0 0 8.95599 0 20C0 31.044 8.95599 40 20 40C20.1175 40 20.2344 39.9976 20.3516 39.9954V24.4263H16.0547V19.4186H20.3516V15.7336C20.3516 11.46 22.9605 9.13391 26.7728 9.13391C28.5983 9.13391 30.1675 9.27002 30.625 9.33075V13.7973H27.9962C25.9222 13.7973 25.5206 14.783 25.5206 16.2292V19.4186H30.4797L29.8334 24.4263H25.5206V39.2273C33.8803 36.8307 40 29.129 40 20Z" fill="white"/>
<path d="M21.3214 39.9556C21.1133 39.969 20.9042 39.9797 20.6946 39.9867C20.9042 39.9797 21.1133 39.969 21.3214 39.9556Z" fill="white"/>
<path d="M20.684 39.9873C20.5735 39.991 20.4627 39.9937 20.3519 39.9955C20.4627 39.9937 20.5735 39.991 20.684 39.9873Z" fill="white"/>
</svg>
